# xmcd CD database file
#
# Track frame offsets:
#	150
#	10965
#	23140
#	49067
#	67030
#	84328
#	99838
#	121915
#	132790
#	163896
#	180380
#	203521
#
# Disc length: 3079 seconds
#
# Revision: 0
# Processed by: cddbd v1.5.1PL2 Copyright (c) Steve Scherf et al.
# Submitted via: CDex 1.51
#
DISCID=900c050c
DTITLE=George Washingmachine and The Twang Dynasty - Cow Cow Boogie
DYEAR=2001
DGENRE=Jazz
TTITLE0=Lyle Lou
TTITLE1=Big Beaver
TTITLE2=Baby That Sure Would Go Good
TTITLE3=San Antonio Rose
TTITLE4=Topsy
TTITLE5=Cherokee Maiden
TTITLE6=Cow Cow Boogie
TTITLE7=I Was Ready
TTITLE8=Swingin' The Blues
TTITLE9=Leaster Leaps In
TTITLE10=My Blues Heaven
TTITLE11=The Nearness Of You
EXTD=YEAR: 2001
EXTT0=
EXTT1=
EXTT2=
EXTT3=
EXTT4=
EXTT5=
EXTT6=
EXTT7=
EXTT8=
EXTT9=
EXTT10=
EXTT11=
PLAYORDER=
